<?xml version="1.0" encoding="utf-8"?>
<!-- Generator: Adobe Illustrator 26.3.1, SVG Export Plug-In . SVG Version: 6.00 Build 0)  -->
<svg version="1.1" xmlns="http://www.w3.org/2000/svg" xmlns:xlink="http://www.w3.org/1999/xlink" x="0px" y="0px"
	 viewBox="0 0 110 38" style="enable-background:new 0 0 110 38;" xml:space="preserve">
<style type="text/css">
	.st0{fill:#283257;}
	.st1{fill:#FFFFFF;}
	.st2{fill:url(#SVGID_1_);}
	.st3{fill:url(#SVGID_00000056427749898969801820000010893548837305089190_);}
	.st4{fill:url(#SVGID_00000110472108499875667310000000653089707273242795_);}
	.st5{fill:url(#SVGID_00000026845595324863220610000012474325033139828892_);}
	.st6{fill:url(#SVGID_00000182506786953494895370000008441099253231979952_);}
	.st7{fill:url(#SVGID_00000018226517383703789920000001434520297510252695_);}
	.st8{fill:url(#SVGID_00000137845728535082877900000005596144776010659774_);}
	.st9{fill:url(#SVGID_00000111189211830191536100000008157184282381569203_);}
	.st10{fill:url(#SVGID_00000089565158400053675810000017394789932900764303_);}
	.st11{fill:#231815;}
	.st12{fill:url(#SVGID_00000070798707603676125590000006007076609753454482_);}
	.st13{fill:url(#SVGID_00000181797425518259315920000009602157476564184458_);}
	.st14{fill:url(#SVGID_00000077293968699272079270000003854132246712089275_);}
	.st15{fill:url(#SVGID_00000101784372849680352110000008678804075424980362_);}
	.st16{fill:url(#SVGID_00000000206613669456996470000010170100765114393791_);}
	.st17{fill:url(#SVGID_00000149346825580902671610000005519867814487153825_);}
	.st18{fill:url(#SVGID_00000129203231269284267680000003134968299183003523_);}
	.st19{fill:url(#SVGID_00000047046380274036199490000003310146014237431194_);}
	.st20{fill:url(#SVGID_00000114771508952280695950000004594447629736153750_);}
	.st21{fill:#E8ECEF;}
	.st22{fill:url(#SVGID_00000072254174522969671650000007997518494172341174_);}
	.st23{fill:url(#SVGID_00000083091170993570278980000003053933736508548996_);}
	.st24{fill:url(#SVGID_00000097495729858021881970000003740032118226752898_);}
	.st25{fill:url(#SVGID_00000110450041417526866390000005359861045292284290_);}
	.st26{fill:url(#SVGID_00000102538689575161075600000011139534025363231649_);}
	.st27{fill:url(#SVGID_00000108266744270620138730000009135220318988886719_);}
	.st28{fill:url(#SVGID_00000105422606495745963570000016573498192251857292_);}
	.st29{fill:url(#SVGID_00000047062502195552957990000003681635385608671925_);}
	.st30{fill:url(#SVGID_00000126293883773279986670000017577691172389197191_);}
</style>
<g id="レイヤー_1">
</g>
<g id="レイヤー_2">
</g>
<g id="レイヤー_3">
	<g>
		<g>
			<path class="st21" d="M107,23.1c-0.4-0.7-0.9-1.4-1.5-1.9c0,0,0,0,0,0c0.1-0.1,0.2-0.2,0.3-0.3l1.3-2.2c0.6-0.9,0.3-2.1-0.6-2.8
				c-0.8-0.6-1.6-1-2.5-1.3c-0.9-0.3-2-0.4-3.2-0.4c-1.5,0-2.8,0.3-3.9,1c-0.1,0.1-0.3,0.2-0.4,0.3c-0.1-0.3-0.3-0.6-0.6-0.8
				c-0.5-0.4-1.2-0.6-1.8-0.5c-0.5,0.1-1,0.3-1.6,0.6c-0.4,0.2-0.7,0.4-1.1,0.6c-0.4-0.4-0.9-0.6-1.5-0.6h-3.6c-1.2,0-2.1,1-2.1,2.1
				v0.3c-0.6-0.7-1.3-1.4-2.2-1.9c-1.3-0.8-2.9-1.2-4.7-1.2c-1.8,0-3.3,0.4-4.7,1.2c-1.1,0.6-2,1.4-2.7,2.4c-0.4-0.5-1-0.9-1.7-0.9
				h-0.4v-0.5c0-1.2-1-2.1-2.1-2.1H62c-1.2,0-2.1,1-2.1,2.1v0.5h-0.3c0-1.2-1-2.1-2.1-2.1H54c-0.4,0-0.7,0.1-1,0.2
				c-1-0.6-2.2-0.9-3.8-0.9c-1.4,0-2.8,0.4-4,1.2c-1,0.6-1.8,1.5-2.4,2.5c-1-1.4-2.4-2.5-4.2-3.1c-1.6-0.6-3.2-0.7-4.8-0.3
				c-1.5,0.3-2.9,1-4.1,2l0,0c0-0.7-0.2-1.3-0.7-1.7c-0.5-0.4-1.2-0.6-1.8-0.5c-0.5,0.1-1,0.3-1.6,0.6c-0.4,0.2-0.7,0.4-1.1,0.6
				c-0.4-0.4-0.9-0.6-1.5-0.6h-3.6c-0.1,0-0.2,0-0.3,0c0.4-1.1-0.1-2.3-1.1-3c-0.7-0.5-1.6-0.9-2.8-1.3c-1.2-0.4-2.5-0.6-4-0.6
				c-1.6,0-3.1,0.3-4.5,0.9c-1.4,0.6-2.6,1.4-3.6,2.5c-1,1.1-1.8,2.3-2.3,3.8c-0.5,1.4-0.8,2.9-0.8,4.6c0,1.5,0.3,2.9,0.8,4.3
				c0.5,1.4,1.3,2.6,2.3,3.6c1,1.1,2.2,1.9,3.6,2.5c1.4,0.6,3,0.9,4.7,1c0.1,0,0.2,0,0.2,0c1.1,0,2.1-0.1,3-0.4
				c0.9-0.3,1.7-0.6,2.4-0.9c0.2-0.1,0.4-0.2,0.6-0.3c0.4,0.5,1,0.8,1.6,0.8h3.5c1.2,0,2.1-1,2.1-2.1V25c0-0.5,0.1-1,0.4-1.5
				c0.2-0.4,0.5-0.8,0.9-1.1c0.1,0,0.1-0.1,0.2-0.1c-0.2,1-0.2,1.9-0.1,2.9c0.1,1,0.4,1.9,0.9,2.7c0,0.1,0.1,0.2,0.1,0.3
				c0.8,1.4,1.9,2.5,3.3,3.3c1.1,0.6,2.3,0.9,3.5,1c0.3,0,0.7,0.1,1.1,0.1c0,0,0.1,0,0.1,0c0.2,0,0.5,0,0.7-0.1
				c1.5-0.1,2.8-0.5,4-1.2c1-0.6,1.8-1.4,2.5-2.3c0.7,1.1,1.6,2,2.7,2.6c1.2,0.7,2.6,1,4.1,1c1,0,1.9-0.2,2.7-0.5
				c0.2-0.1,0.3-0.2,0.5-0.2c0.3,0.2,0.8,0.4,1.2,0.4h3.6c1.2,0,2.1-1,2.1-2.1v-4.5h0.3V30c0,1.2,1,2.1,2.1,2.1h3.6
				c1.2,0,2.1-1,2.1-2.1v-4.5h0.4c0.1,0,0.1,0,0.2,0c0.2,1,0.5,1.9,0.9,2.7c0.8,1.4,1.9,2.5,3.3,3.3c1.4,0.7,2.9,1.1,4.6,1.1
				c1.8,0,3.4-0.4,4.8-1.2c0.8-0.5,1.6-1.2,2.2-1.9V30c0,1.2,1,2.1,2.1,2.1h3.5c1.2,0,2.1-1,2.1-2.1V25c0-0.5,0.1-1,0.4-1.5
				c0.2-0.4,0.5-0.8,0.9-1.1c0.1-0.1,0.4-0.2,0.9-0.2c0.2,0.7,0.5,1.3,0.9,1.9c0.1,0.2,0.3,0.4,0.5,0.6c-0.1,0.1-0.2,0.2-0.3,0.3
				l-1.4,2c-0.6,0.8-0.5,1.9,0.2,2.7c0.8,0.8,1.7,1.5,2.8,2c1.1,0.5,2.4,0.8,3.7,0.8c1.6,0,2.9-0.3,4-0.9c1.1-0.6,1.9-1.5,2.5-2.5
				c0.5-1,0.8-2.1,0.8-3.2C107.6,24.8,107.4,23.9,107,23.1z M76.2,24.4C76,24.1,76,23.8,76,23.3c0-0.4,0.1-0.8,0.2-1.1
				c0.1-0.3,0.3-0.5,0.5-0.6c0.1-0.1,0.3-0.1,0.4-0.1c0.3,0,0.4,0.1,0.5,0.1c0.2,0.1,0.3,0.3,0.4,0.6c0.1,0.3,0.2,0.7,0.2,1.1
				c0,0.4-0.1,0.8-0.2,1.1c-0.1,0.3-0.2,0.4-0.4,0.6c-0.1,0.1-0.2,0.1-0.5,0.1c-0.2,0-0.3,0-0.4-0.1C76.5,24.9,76.3,24.7,76.2,24.4z
				 M51.6,22.1v2.5c-0.1,0.1-0.1,0.2-0.2,0.3c-0.1,0.1-0.2,0.2-0.3,0.2c-0.3,0.1-0.8,0.2-1.2-0.1c-0.2-0.2-0.4-0.4-0.6-0.7
				c-0.2-0.3-0.2-0.6-0.2-1.1c0-0.4,0.1-0.8,0.2-1c0.1-0.3,0.3-0.5,0.5-0.6c0.2-0.1,0.3-0.2,0.5-0.2c0.3,0,0.5,0,0.7,0.1
				c0.2,0.1,0.3,0.2,0.4,0.3C51.5,22,51.6,22,51.6,22.1z M16,23.2c-0.8-0.2-1.7,0.1-2.3,0.7c0,0-0.2,0.2-0.8,0.5
				c-0.6,0.3-1.8,0.3-2.5,0c-0.3-0.1-0.5-0.3-0.8-0.5c-0.2-0.2-0.4-0.5-0.5-0.9C9,22.5,8.9,22,8.9,21.4c0-0.5,0.1-0.9,0.2-1.3
				c0.2-0.4,0.4-0.7,0.6-1c0.2-0.3,0.5-0.4,0.8-0.6c0.7-0.3,1.5-0.2,2,0c0.6,0.3,1,0.5,1.2,0.7c0.6,0.5,1.5,0.6,2.2,0.4
				c0.5-0.1,0.9-0.4,1.3-0.8v4.8C16.8,23.5,16.4,23.3,16,23.2z"/>
			<g>
				<g>
					<g>
						<linearGradient id="SVGID_1_" gradientUnits="userSpaceOnUse" x1="9.8221" y1="11.9321" x2="9.8221" y2="31.027">
							<stop  offset="0" style="stop-color:#3F9AF4"/>
							<stop  offset="1" style="stop-color:#2746E1"/>
						</linearGradient>
						<path class="st2" d="M16.1,25.5c-0.1-0.2-0.3-0.3-0.5-0.3c-0.2,0-0.3,0.1-0.4,0.2c-0.3,0.3-0.8,0.6-1.3,0.8
							c-0.6,0.3-1.3,0.4-2.2,0.4c-0.7,0-1.4-0.1-2-0.4c-0.6-0.2-1.1-0.6-1.5-1c-0.4-0.4-0.7-1-0.9-1.6c-0.2-0.6-0.3-1.4-0.3-2.1
							c0-0.7,0.1-1.4,0.4-2c0.2-0.6,0.6-1.1,1-1.6c0.4-0.5,0.9-0.8,1.4-1c0.5-0.2,1.1-0.4,1.7-0.4c0.8,0,1.4,0.1,2,0.4
							c0.6,0.3,1.1,0.6,1.5,0.9c0.1,0.1,0.2,0.1,0.4,0.1c0.2,0,0.5-0.1,0.6-0.4l1.3-3.2c0.1-0.3,0-0.6-0.2-0.7
							c-0.6-0.4-1.4-0.7-2.3-1.1c-1-0.3-2.1-0.5-3.3-0.5c-1.3,0-2.6,0.2-3.7,0.7c-1.1,0.5-2.1,1.2-2.9,2c-0.8,0.9-1.4,1.9-1.9,3.1
							c-0.4,1.2-0.6,2.5-0.6,3.9c0,1.3,0.2,2.5,0.6,3.6c0.4,1.1,1,2.1,1.8,3c0.8,0.9,1.8,1.6,3,2.1C8.7,30.7,10,31,11.5,31
							c0.1,0,0.1,0,0.2,0c0.9,0,1.7-0.1,2.4-0.3c0.8-0.2,1.5-0.5,2-0.8c0.5-0.3,0.9-0.5,1.1-0.7c0.2-0.2,0.3-0.5,0.2-0.7L16.1,25.5z
							 M15.5,25.7C15.5,25.7,15.5,25.7,15.5,25.7C15.5,25.7,15.5,25.7,15.5,25.7C15.5,25.7,15.5,25.7,15.5,25.7z"/>
					</g>
					<g>
						
							<linearGradient id="SVGID_00000142178480144841343370000004714515498693782428_" gradientUnits="userSpaceOnUse" x1="23.4199" y1="16.0449" x2="23.4199" y2="30.2647">
							<stop  offset="0" style="stop-color:#3F9AF4"/>
							<stop  offset="1" style="stop-color:#2746E1"/>
						</linearGradient>
						<path style="fill:url(#SVGID_00000142178480144841343370000004714515498693782428_);" d="M22.9,16.7c0.1,0,0.2,0.1,0.2,0.2
							l0,2.9L23,19.9c0,0,0-0.1,0-0.1c0.4-0.8,0.8-1.4,1.5-2c0.6-0.6,1.3-1,1.9-1.3c0.5-0.2,0.8-0.4,1.1-0.4c0.1,0,0.3,0.1,0.3,0.2
							l-0.2,3.8c0,0.1-0.1,0.2-0.2,0.2c-0.8-0.1-1.6,0.1-2.2,0.5c-0.7,0.5-1.2,1.1-1.5,1.8c-0.4,0.7-0.5,1.5-0.5,2.3V30
							c0,0.1-0.1,0.2-0.2,0.2h-3.5c-0.1,0-0.2-0.1-0.2-0.2V16.9c0-0.1,0.1-0.2,0.2-0.2H22.9z"/>
					</g>
					<g>
						
							<linearGradient id="SVGID_00000020391643516982658430000017314933712298124475_" gradientUnits="userSpaceOnUse" x1="35.2733" y1="16.1281" x2="35.2733" y2="30.6624">
							<stop  offset="0" style="stop-color:#3F9AF4"/>
							<stop  offset="1" style="stop-color:#2746E1"/>
						</linearGradient>
						<path style="fill:url(#SVGID_00000020391643516982658430000017314933712298124475_);" d="M41.6,19.6c-0.7-1.4-1.9-2.5-3.6-3
							c-1.3-0.4-2.5-0.5-3.8-0.3c-1.2,0.3-2.3,0.8-3.3,1.6c-1,0.8-1.7,1.9-2.1,3.2c-0.5,1.3-0.6,2.6-0.4,3.9
							c0.1,0.8,0.4,1.6,0.8,2.3l0,0c0.6,1.1,1.5,1.9,2.5,2.5c0.9,0.5,1.8,0.7,2.8,0.8c0.3,0,0.6,0.1,0.9,0.1c0.2,0,0.4,0,0.6,0
							c0,0,0,0,0,0c1.2-0.1,2.3-0.4,3.2-0.9c1-0.6,1.8-1.5,2.4-2.5c0,0,0,0,0,0c0.1-0.1,0-0.3-0.2-0.3l-4.8,0c0,0-0.1,0-0.1,0
							c-0.1,0-0.2,0.1-0.3,0.1c0,0,0,0,0,0c-0.1,0-0.1,0-0.3,0c-0.4,0-0.9,0-1.3-0.2c-0.6-0.2-1.1-0.5-1.4-1
							c-0.2-0.2-0.3-0.4-0.4-0.6c-0.1-0.1,0-0.3,0.2-0.3l9.2,0c0.1,0,0.2-0.1,0.2-0.2C42.5,22.7,42.3,21,41.6,19.6z M33.5,20.4
							c0.4-0.4,0.9-0.7,1.4-0.9c0.5-0.1,1.1-0.1,1.6,0.1c0.7,0.3,1.2,0.6,1.5,1.1c0.2,0.4,0.3,0.8,0.3,1.3c0,0.1-0.1,0.2-0.2,0.2
							l-5.6,0.1c0-0.1,0.1-0.2,0.1-0.3C32.8,21.4,33.1,20.9,33.5,20.4z"/>
					</g>
					<g>
						
							<linearGradient id="SVGID_00000144329998861203353390000000591682654510341055_" gradientUnits="userSpaceOnUse" x1="50.33" y1="16.0186" x2="50.33" y2="30.6372">
							<stop  offset="0" style="stop-color:#3F9AF4"/>
							<stop  offset="1" style="stop-color:#2746E1"/>
						</linearGradient>
						<path style="fill:url(#SVGID_00000144329998861203353390000000591682654510341055_);" d="M49.4,30.6c-1.2,0-2.2-0.3-3.2-0.8
							c-0.9-0.5-1.7-1.3-2.2-2.3c-0.6-1.1-0.8-2.4-0.8-4c0-1.5,0.3-2.9,0.9-4c0.6-1.1,1.3-2,2.3-2.6c0.9-0.6,1.9-0.9,3-0.9
							c1.2,0,2.2,0.2,2.8,0.7c0.6,0.4,1.1,0.9,1.5,1.4c0,0.1,0.1,0.1,0,0.2l-0.1,0.4l0.1-1.8c0-0.1,0.1-0.2,0.2-0.2h3.6
							c0.1,0,0.2,0.1,0.2,0.2V30c0,0.1-0.1,0.2-0.2,0.2h-3.6c-0.1,0-0.2-0.1-0.2-0.2v-2.7l0.3,0.8c0,0.1,0,0.2-0.1,0.2
							c-0.1,0.1-0.1,0.2-0.2,0.3c-0.2,0.2-0.5,0.5-0.8,0.8c-0.4,0.3-0.8,0.6-1.4,0.8S50.1,30.6,49.4,30.6z M50.5,27.1
							c0.5,0,0.9-0.1,1.3-0.2c0.4-0.2,0.7-0.4,1-0.7c0.3-0.3,0.5-0.7,0.7-1.1c0,0,0-0.1,0-0.1v-3.2c0,0,0-0.1,0-0.1
							c-0.2-0.4-0.4-0.8-0.7-1.1c-0.3-0.3-0.7-0.6-1.1-0.7c-0.4-0.2-0.9-0.3-1.4-0.3c-0.6,0-1.1,0.2-1.6,0.5
							c-0.5,0.3-0.9,0.8-1.2,1.3c-0.3,0.6-0.4,1.2-0.4,1.9c0,0.7,0.2,1.4,0.5,2c0.3,0.6,0.7,1,1.2,1.4
							C49.4,26.9,49.9,27.1,50.5,27.1z"/>
					</g>
					<g>
						
							<linearGradient id="SVGID_00000178190144134229286750000008034885842344359064_" gradientUnits="userSpaceOnUse" x1="63.7725" y1="16.2126" x2="63.7725" y2="30.2647">
							<stop  offset="0" style="stop-color:#3F9AF4"/>
							<stop  offset="1" style="stop-color:#2746E1"/>
						</linearGradient>
						<path style="fill:url(#SVGID_00000178190144134229286750000008034885842344359064_);" d="M62,16.2h3.6c0.1,0,0.2,0.1,0.2,0.2
							v2.2c0,0.1,0.1,0.2,0.2,0.2h2.1c0.1,0,0.2,0.1,0.2,0.2v4.3c0,0.1-0.1,0.2-0.2,0.2H66c-0.1,0-0.2,0.1-0.2,0.2V30
							c0,0.1-0.1,0.2-0.2,0.2H62c-0.1,0-0.2-0.1-0.2-0.2v-6.2c0-0.1-0.1-0.2-0.2-0.2h-2c-0.1,0-0.2-0.1-0.2-0.2v-4.3
							c0-0.1,0.1-0.2,0.2-0.2h2c0.1,0,0.2-0.1,0.2-0.2v-2.2C61.7,16.3,61.8,16.2,62,16.2z"/>
					</g>
					<g>
						
							<linearGradient id="SVGID_00000164479705532872256580000016943577001206799773_" gradientUnits="userSpaceOnUse" x1="77.1028" y1="16.0496" x2="77.1028" y2="30.6372">
							<stop  offset="0" style="stop-color:#3F9AF4"/>
							<stop  offset="1" style="stop-color:#2746E1"/>
						</linearGradient>
						<path style="fill:url(#SVGID_00000164479705532872256580000016943577001206799773_);" d="M70,23.3c0-1.4,0.3-2.6,0.9-3.7
							c0.6-1.1,1.4-2,2.5-2.6c1.1-0.6,2.3-0.9,3.8-0.9c1.4,0,2.7,0.3,3.7,0.9c1.1,0.6,1.9,1.5,2.4,2.6c0.6,1.1,0.8,2.3,0.8,3.7
							c0,1.4-0.3,2.6-0.8,3.7c-0.6,1.1-1.4,2-2.4,2.6c-1.1,0.6-2.3,1-3.8,1c-1.4,0-2.6-0.3-3.7-0.9c-1.1-0.6-1.9-1.4-2.5-2.5
							C70.3,26.2,70,24.8,70,23.3z M74.1,23.3c0,0.7,0.1,1.3,0.4,1.9c0.3,0.6,0.6,1,1.1,1.4c0.5,0.3,1,0.5,1.5,0.5
							c0.6,0,1.2-0.2,1.6-0.5c0.5-0.3,0.8-0.8,1.1-1.4c0.2-0.6,0.4-1.2,0.4-1.9c0-0.7-0.1-1.4-0.4-1.9c-0.2-0.6-0.6-1-1.1-1.3
							c-0.5-0.3-1-0.5-1.6-0.5c-0.6,0-1.1,0.2-1.5,0.5c-0.5,0.3-0.8,0.8-1.1,1.3C74.2,22,74.1,22.6,74.1,23.3z"/>
					</g>
					<g>
						
							<linearGradient id="SVGID_00000095325312318255960380000004173959637211192996_" gradientUnits="userSpaceOnUse" x1="90.3356" y1="16.0449" x2="90.3356" y2="30.2647">
							<stop  offset="0" style="stop-color:#3F9AF4"/>
							<stop  offset="1" style="stop-color:#2746E1"/>
						</linearGradient>
						<path style="fill:url(#SVGID_00000095325312318255960380000004173959637211192996_);" d="M89.8,16.7c0.1,0,0.2,0.1,0.2,0.2
							l0,2.9l-0.1,0.1c0,0,0-0.1,0-0.1c0.4-0.8,0.8-1.4,1.5-2c0.6-0.6,1.3-1,1.9-1.3c0.5-0.2,0.8-0.4,1.1-0.4c0.1,0,0.3,0.1,0.3,0.2
							l-0.2,3.8c0,0.1-0.1,0.2-0.2,0.2c-0.8-0.1-1.6,0.1-2.2,0.5c-0.7,0.5-1.2,1.1-1.5,1.8C90.2,23.4,90,24.2,90,25V30
							c0,0.1-0.1,0.2-0.2,0.2h-3.5c-0.1,0-0.2-0.1-0.2-0.2V16.9c0-0.1,0.1-0.2,0.2-0.2L89.8,16.7z"/>
					</g>
					<g>
						
							<linearGradient id="SVGID_00000080888605932924148430000008693032427861856136_" gradientUnits="userSpaceOnUse" x1="100.4308" y1="16.0806" x2="100.4308" y2="30.544">
							<stop  offset="0" style="stop-color:#3F9AF4"/>
							<stop  offset="1" style="stop-color:#2746E1"/>
						</linearGradient>
						<path style="fill:url(#SVGID_00000080888605932924148430000008693032427861856136_);" d="M100.3,30.5c-1,0-2-0.2-2.9-0.6
							c-0.8-0.4-1.5-0.9-2.1-1.5c-0.1-0.1-0.1-0.2,0-0.3l1.4-2c0.1-0.1,0.2-0.1,0.3,0c0.5,0.5,1,0.9,1.5,1.1c0.5,0.3,1,0.4,1.4,0.4
							c0.3,0,0.6,0,0.9-0.1c0.3-0.1,0.5-0.2,0.6-0.3c0.2-0.2,0.2-0.4,0.2-0.6c0-0.4-0.1-0.6-0.4-0.8c-0.3-0.2-0.6-0.4-1-0.5
							c-0.4-0.1-0.8-0.3-1.3-0.4c-1.1-0.4-2-1-2.5-1.7c-0.5-0.8-0.8-1.6-0.8-2.5c0-0.7,0.2-1.4,0.5-2.1c0.3-0.7,0.9-1.3,1.6-1.7
							c0.7-0.5,1.7-0.7,2.9-0.7c1.1,0,1.9,0.1,2.7,0.3c0.7,0.2,1.3,0.5,1.9,1c0.1,0.1,0.1,0.2,0.1,0.3l-1.3,2.1
							c-0.1,0.1-0.2,0.1-0.3,0.1c-0.3-0.2-0.6-0.4-1-0.6c-0.4-0.2-0.9-0.3-1.2-0.4c-0.3,0-0.6,0-0.9,0.1c-0.2,0.1-0.4,0.2-0.6,0.4
							c-0.1,0.2-0.2,0.3-0.2,0.5c0,0.4,0.1,0.7,0.4,0.9c0.3,0.2,0.7,0.4,1.1,0.5s0.9,0.3,1.3,0.4c0.6,0.2,1.1,0.5,1.6,0.8
							c0.4,0.4,0.8,0.8,1,1.3c0.2,0.5,0.4,1.1,0.4,1.8c0,0.8-0.2,1.6-0.6,2.3c-0.4,0.7-1,1.3-1.8,1.8
							C102.5,30.3,101.5,30.5,100.3,30.5z"/>
					</g>
				</g>
			</g>
		</g>
		<g>
			<path class="st21" d="M108.9,8.4l0.5-1c0,0,0-0.1,0.1-0.1c0.1-0.2,0.2-0.5,0.2-0.9c0-0.6-0.3-1.1-0.8-1.5
				c-1.1-0.9-2.5-1.3-4.2-1.3c-1.2,0-2.3,0.3-3.1,0.9c-0.3-0.4-0.9-0.7-1.5-0.7h-2.3c-0.5,0-1,0.2-1.3,0.5c-0.3-0.3-0.8-0.5-1.3-0.5
				h-2.2c-0.1,0-0.2,0-0.4,0V2.4c0-1.2-0.9-2.1-2-2.1h-2c-0.9,0-1.7,0.5-1.9,1.4c-1.1-0.9-2.6-1.4-4.5-1.4h-3.7c-1.2,0-2,0.9-2,2.1
				v4.9l-2.5-5.4c-0.7-1.5-1.7-1.8-2.4-1.8c-1,0-1.8,0.6-2.4,1.8L67,6.6c-0.1-0.5-0.5-0.9-0.9-1.2l0.4-0.7c0.1-0.3,0.3-0.6,0.3-1.1
				c0-0.4-0.1-1.2-1-1.8c-1.4-1-3.2-1.6-5-1.6c-2,0-3.7,0.6-5,1.8c-0.2-0.9-1-1.5-2-1.5h-2.6c-1.2,0-2.1,0.9-2.1,2.1v0.7l-2.5-2.1
				c-0.6-0.5-1.2-1-2-1c-1,0-2.1,0.7-2.1,2.4v4l-2.2-4.7c-0.7-1.5-1.7-1.8-2.4-1.8c-1,0-1.8,0.6-2.4,1.8l-2.2,4.7v-4
				c0-1.5-1-2.3-2.1-2.3c-0.9,0-1.5,0.6-1.9,1L26,4.7l-3.3-3.6c-0.4-0.4-1-1-1.9-1c-1,0-2.1,0.8-2.1,2.3v10.6c0,1.2,0.9,2.1,2.1,2.1
				h2.6c1.2,0,2-0.8,2.1-2c0.3,0.1,0.6,0.1,0.8,0c0.1,1.2,0.9,2,2.1,2h2.6c0.2,0,0.4,0,0.6-0.1c0.2,0,0.4,0.1,0.6,0.1H35
				c1.1,0,1.7-0.4,2.2-1.4l0.2-0.6h0.9l0.3,0.6c0.4,0.9,1.1,1.4,2.2,1.4h2.7c0.2,0,0.4,0,0.6-0.1c0.2,0,0.4,0.1,0.6,0.1h2.6
				c1.2,0,2.1-0.9,2.1-2.1v-0.7l2.5,2.1c0.5,0.5,1.1,1,2,1c0.9,0,1.8-0.5,2-1.7c1.3,1.1,3,1.7,4.9,1.7c1.4,0,2.7-0.3,4-0.8
				c0.3,0.3,0.8,0.5,1.4,0.5h2.6c1.1,0,1.7-0.4,2.2-1.4l0.2-0.6H72l0.3,0.6c0.4,0.9,1.1,1.4,2.2,1.4h2.7c0.2,0,0.4,0,0.6-0.1
				c0.2,0.1,0.5,0.1,0.8,0.1h2c1.2,0,2.1-0.9,2.1-2.1v-1c1.7-0.1,3-0.6,4-1.4v2.4c0,1.2,0.9,2.1,2,2.1h2c0.9,0,1.7-0.5,1.9-1.4
				c0.9,1,2.3,1.6,4,1.6c1.6,0,2.9-0.5,3.9-1.4c0,0,0,0,0.1,0c1.2,0.9,2.6,1.4,4.3,1.4c3,0,5-1.7,5-4.4C109.8,9.9,109.5,9,108.9,8.4
				z M108.1,6.5C108.1,6.5,108.1,6.5,108.1,6.5L108.1,6.5L108.1,6.5z"/>
			<g>
				
					<linearGradient id="SVGID_00000158742439212520328210000005450189130871632281_" gradientUnits="userSpaceOnUse" x1="48.9747" y1="13.8282" x2="48.9747" y2="1.7419">
					<stop  offset="0.1343" style="stop-color:#E50012"/>
					<stop  offset="0.295" style="stop-color:#E61A0E"/>
					<stop  offset="0.5279" style="stop-color:#E83A08"/>
					<stop  offset="0.7237" style="stop-color:#E94E05"/>
					<stop  offset="0.8575" style="stop-color:#E95504"/>
				</linearGradient>
				<path style="fill:url(#SVGID_00000158742439212520328210000005450189130871632281_);" d="M31.6,13.1V2.5c0-0.4-0.2-0.7-0.4-0.7
					c-0.2,0-0.4,0.2-0.7,0.5L26,7.2l-4.5-4.8c-0.3-0.3-0.5-0.5-0.7-0.5c-0.3,0-0.4,0.2-0.4,0.7v10.6c0,0.3,0.2,0.5,0.5,0.5h2.6
					c0.3,0,0.5-0.2,0.5-0.5V9.7l1.5,1.5c0.3,0.3,0.4,0.4,0.6,0.4c0.2,0,0.3-0.1,0.6-0.4l1.5-1.5v3.4c0,0.3,0.2,0.5,0.5,0.5h2.6
					C31.5,13.6,31.6,13.4,31.6,13.1 M38.5,8.7c0,0.1-0.1,0.1-0.2,0.1h-1.1c-0.1,0-0.2,0-0.2-0.1c0,0,0-0.1,0-0.1l0.7-1.5l0.7,1.5
					C38.5,8.6,38.5,8.7,38.5,8.7 M43.8,13.3c0-0.1,0-0.2-0.1-0.3l-5-10.5c-0.3-0.6-0.6-0.8-0.9-0.8c-0.3,0-0.6,0.2-0.9,0.8L32,13
					C32,13.2,32,13.3,32,13.3c0,0.2,0.2,0.2,0.4,0.2H35c0.4,0,0.5,0,0.7-0.4l0.6-1.3c0.1-0.2,0.1-0.2,0.3-0.2h2.7
					c0.2,0,0.2,0,0.3,0.2l0.6,1.3c0.2,0.4,0.3,0.4,0.7,0.4h2.7C43.6,13.6,43.8,13.5,43.8,13.3 M54.2,13.1V2.6c0-0.3-0.2-0.5-0.5-0.5
					h-2.6c-0.3,0-0.5,0.2-0.5,0.5v4.3l-5.2-4.4C45,2,44.8,1.8,44.5,1.8c-0.3,0-0.5,0.2-0.5,0.7v10.5c0,0.3,0.2,0.5,0.5,0.5h2.6
					c0.3,0,0.5-0.2,0.5-0.5V8.8l5.2,4.4c0.5,0.4,0.7,0.6,0.9,0.6C54.1,13.8,54.2,13.6,54.2,13.1 M65.4,11.9V7.3
					c0-0.3-0.2-0.5-0.5-0.5h-0.2l0,0h-3.7c-0.3,0-0.4,0.1-0.4,0.4v2.1c0,0.3,0.1,0.4,0.4,0.4h0.8v0.2c0,0.2-0.1,0.3-0.2,0.4
					c-0.2,0.1-0.5,0.1-0.9,0.1c-1.4,0-2.2-1.1-2.2-2.5c0-1.4,0.8-2.5,2.4-2.5c0.9,0,1.6,0.2,2.3,0.7c0.1,0.1,0.2,0.1,0.3,0.1
					c0.2,0,0.3-0.1,0.4-0.3l1-1.8c0.1-0.1,0.1-0.3,0.1-0.4c0-0.2-0.1-0.3-0.3-0.5c-1.1-0.8-2.5-1.3-4-1.3c-3.5,0-5.9,2.5-5.9,6.1
					c0,3.5,2.4,5.9,5.8,5.9c1.7,0,3.1-0.4,4.3-1.1C65.4,12.5,65.4,12.3,65.4,11.9 M72.2,8.7c0,0.1-0.1,0.1-0.2,0.1H71
					c-0.1,0-0.2,0-0.2-0.1c0,0,0-0.1,0-0.1l0.7-1.5l0.7,1.5C72.2,8.6,72.2,8.7,72.2,8.7 M77.5,13.3c0-0.1,0-0.2-0.1-0.3l-5-10.5
					c-0.3-0.6-0.6-0.8-0.9-0.8c-0.3,0-0.6,0.2-0.9,0.8l-5,10.5c-0.1,0.1-0.1,0.2-0.1,0.3c0,0.2,0.2,0.2,0.4,0.2h2.6
					c0.4,0,0.5,0,0.7-0.4l0.6-1.3c0.1-0.2,0.1-0.2,0.3-0.2h2.7c0.2,0,0.2,0,0.3,0.2l0.6,1.3c0.2,0.4,0.3,0.4,0.7,0.4h2.7
					C77.3,13.6,77.5,13.5,77.5,13.3"/>
				<path class="st11" d="M102.1,11l-0.7,1.3c-0.1,0.1-0.1,0.2-0.1,0.3c0,0.1,0.1,0.2,0.2,0.3c0.8,0.7,1.9,1,3.3,1
					c2.2,0,3.4-1.1,3.4-2.8c0-1.5-0.8-2.2-2.6-2.7c-0.9-0.3-1.3-0.4-1.3-0.7c0-0.3,0.2-0.4,0.6-0.4c0.6,0,1.3,0.3,1.9,0.7
					c0.1,0.1,0.2,0.1,0.3,0.1c0.1,0,0.2-0.1,0.2-0.2l0.7-1.3c0-0.1,0.1-0.2,0.1-0.3c0-0.1,0-0.2-0.2-0.3c-0.8-0.7-1.9-1-3.2-1
					c-1.8,0-3.2,1-3.2,2.8c0,1.5,0.9,2.2,2.5,2.7c1,0.3,1.4,0.4,1.4,0.7c0,0.3-0.2,0.4-0.7,0.4c-0.6,0-1.5-0.3-2.1-0.7
					c-0.1-0.1-0.2-0.1-0.3-0.1C102.3,10.8,102.2,10.9,102.1,11 M92.8,5.6v4c0,2.9,1.4,4.2,3.8,4.2c2.4,0,3.8-1.4,3.8-4.2v-4
					c0-0.2-0.1-0.3-0.3-0.3h-2.3c-0.2,0-0.3,0.1-0.3,0.3v3.8c0,1.1-0.3,1.6-1,1.6c-0.7,0-1-0.6-1-1.6V5.6c0-0.2-0.1-0.3-0.3-0.3
					h-2.2C92.9,5.3,92.8,5.4,92.8,5.6 M88.3,2.4v10.8c0,0.3,0.1,0.4,0.4,0.4h2c0.3,0,0.4-0.1,0.4-0.4V2.4c0-0.3-0.1-0.4-0.4-0.4h-2
					C88.4,1.9,88.3,2.1,88.3,2.4 M82,7.8h-0.8C81,7.8,81,7.7,81,7.5V4.9c0-0.2,0-0.3,0.2-0.3H82c1.3,0,2,0.4,2,1.5
					C84,7.3,83.3,7.8,82,7.8 M78.1,2.4v10.8c0,0.3,0.1,0.5,0.4,0.5h2c0.3,0,0.4-0.2,0.4-0.5v-2.4c0-0.2,0-0.3,0.2-0.3h0.9
					c3.1,0,4.8-1.5,4.8-4.4c0-2.9-1.6-4.3-4.7-4.3h-3.7C78.2,1.9,78.1,2.1,78.1,2.4"/>
			</g>
		</g>
		<g>
			<g>
				<path class="st21" d="M79.9,32.9h-0.4c-0.2,0-0.4,0.1-0.6,0.2c-0.2-0.1-0.4-0.2-0.6-0.2H78c-0.2,0-0.5,0.1-0.6,0.3
					c-0.1,0-0.1-0.1-0.2-0.1c0-0.2-0.1-0.4-0.2-0.6c-0.2-0.2-0.5-0.4-0.8-0.4h-0.4c-0.5,0-0.8,0.3-1,0.7l-0.7,2.7
					c-0.1,0.3,0,0.6,0.1,0.8c0.2,0.2,0.4,0.4,0.7,0.4c0.2,0,0.4,0.1,0.8,0.1c0.2,0,0.4,0,0.5-0.1c0,0.1,0,0.3,0.1,0.4
					c0.1,0.2,0.4,0.4,0.6,0.5c0.2,0,0.4,0,0.4,0c0.9,0,1.4-0.7,1.6-0.9l1.7-2.3c0.2-0.3,0.3-0.7,0.1-1S80.2,32.9,79.9,32.9z"/>
				<path class="st21" d="M105.6,32.9c0-0.5-0.5-0.9-1-0.9h-0.4c-0.3,0-0.6,0.2-0.8,0.4l-0.3,0.5c0-0.2-0.1-0.4-0.2-0.5
					c-0.2-0.2-0.5-0.4-0.8-0.4h-0.4c-0.3,0-0.5,0.1-0.7,0.3c-0.2-0.2-0.5-0.3-0.7-0.3h-0.4c-0.3,0-0.6,0.2-0.8,0.4
					c-0.3-0.3-0.7-0.5-1.2-0.5c-0.5,0-0.9,0.2-1.3,0.4c0,0,0,0,0,0c-0.2-0.2-0.5-0.4-0.8-0.4h-0.4c-0.2,0-0.4,0.1-0.6,0.2
					c-0.2-0.1-0.4-0.2-0.6-0.2h-1.7c-0.2,0-0.5,0.1-0.6,0.2c-0.2-0.1-0.4-0.2-0.6-0.2h-0.4c-0.3,0-0.6,0.1-0.8,0.4
					c-0.2-0.2-0.5-0.4-0.8-0.4h-0.4c-0.2,0-0.5,0.1-0.6,0.2c-0.2-0.1-0.4-0.2-0.6-0.2h-0.4c-0.3,0-0.5,0.1-0.7,0.3
					c-0.2-0.2-0.5-0.3-0.7-0.3h-0.4c-0.3,0-0.6,0.2-0.8,0.4c-0.3-0.3-0.7-0.5-1.2-0.5c-1,0-1.8,0.7-1.9,1.6c0,0.2,0,0.4,0,0.6
					c-0.3,0.2-0.5,0.5-0.5,0.9c0,0.5,0.2,0.9,0.5,1.2c0.3,0.3,0.8,0.5,1.3,0.5c0.5,0,0.9-0.2,1.3-0.4c0.2,0.2,0.5,0.4,0.7,0.4h0.4
					c0.3,0,0.5-0.1,0.7-0.3c0.2,0.2,0.5,0.3,0.7,0.3H87c0.4,0,0.8-0.3,0.9-0.6c0,0,0,0,0,0c0.3,0.4,0.9,0.6,1.5,0.6
					c0.6,0,1.2-0.2,1.6-0.6c0,0,0,0.1,0.1,0.1c0.2,0.2,0.5,0.4,0.8,0.4h1.7c0.2,0,0.4-0.1,0.6-0.2c0.2,0.1,0.4,0.2,0.6,0.2H95
					c0.3,0,0.6-0.2,0.8-0.4c0.3,0.3,0.8,0.5,1.3,0.5c0.5,0,0.9-0.2,1.3-0.4c0.2,0.2,0.5,0.4,0.7,0.4h0.4c0.3,0,0.5-0.1,0.7-0.3
					c0.2,0.2,0.5,0.3,0.7,0.3h0.4c0.2,0,0.4-0.1,0.5-0.2c0.2,0.1,0.3,0.2,0.5,0.2h0.4c0.3,0,0.6-0.2,0.8-0.5
					c0.2,0.3,0.5,0.5,0.8,0.5h0.4c0.3,0,0.5-0.1,0.7-0.3c0.2-0.2,0.3-0.5,0.3-0.8L105.6,32.9z"/>
			</g>
			<g>
				<path class="st11" d="M75.8,33.1h0.4l-0.3,1c0.1-0.1,0.3-0.2,0.5-0.2c0.5,0,0.6,0.4,0.6,0.8c-0.1,0.5-0.5,1.1-1.3,1.1
					c-0.3,0-0.4,0-0.6,0L75.8,33.1z M75.5,35.5c0.1,0,0.2,0,0.2,0c0.5,0,0.8-0.3,0.9-0.7c0.1-0.3-0.1-0.5-0.4-0.5
					c-0.2,0-0.4,0.1-0.5,0.2L75.5,35.5z"/>
				<path class="st11" d="M78.3,35.6L78,33.9h0.4l0.2,1.2l0.9-1.2h0.4l-1.7,2.3c-0.3,0.4-0.5,0.5-0.8,0.5c0,0-0.1,0-0.2,0l0.1-0.3
					c0,0,0.1,0,0.1,0c0.2,0,0.3-0.1,0.5-0.3L78.3,35.6z"/>
				<path class="st11" d="M83.8,33.8c0-0.3-0.2-0.4-0.4-0.4c-0.2,0-0.4,0.1-0.5,0.4c-0.1,0.5,1.1,0.5,0.9,1.3
					c-0.1,0.5-0.5,0.8-1.1,0.8c-0.5,0-0.8-0.3-0.8-0.7l0.4-0.2c-0.1,0.3,0.1,0.5,0.4,0.5c0.3,0,0.5-0.1,0.6-0.4
					c0.1-0.5-1.1-0.5-0.9-1.3c0.1-0.4,0.5-0.7,1-0.7c0.4,0,0.6,0.2,0.7,0.5L83.8,33.8z"/>
				<path class="st11" d="M86.6,35.8l0.3-1.3h-1.5l-0.3,1.3h-0.4l0.7-2.7h0.4l-0.3,1.1H87l0.3-1.1h0.4L87,35.8H86.6z"/>
				<path class="st11" d="M90.9,33.1h0.4l-0.4,1.6c-0.2,0.8-0.8,1.2-1.5,1.2c-0.5,0-1-0.3-0.9-1.1c0-0.1,0-0.1,0-0.2l0.4-1.5h0.4
					l-0.4,1.6c0,0,0,0.1,0,0.1c-0.1,0.6,0.3,0.7,0.6,0.7c0.3,0,0.8-0.2,1-0.8L90.9,33.1z"/>
				<path class="st11" d="M91.8,35.8l0.7-2.7h1.7l-0.1,0.3h-1.3l-0.2,0.8h1l-0.1,0.3h-1l-0.3,0.9h1.3l-0.1,0.3H91.8z"/>
				<path class="st11" d="M94.7,35.8l0.7-2.7h0.4l-0.7,2.7H94.7z"/>
				<path class="st11" d="M98.2,33.8c0-0.3-0.2-0.4-0.4-0.4c-0.2,0-0.4,0.1-0.5,0.4c-0.1,0.5,1.1,0.5,0.9,1.3
					c-0.1,0.5-0.5,0.8-1.1,0.8c-0.5,0-0.8-0.3-0.8-0.7l0.4-0.2c-0.1,0.3,0.1,0.5,0.4,0.5c0.3,0,0.5-0.1,0.6-0.4
					c0.1-0.5-1.1-0.5-0.9-1.3c0.1-0.4,0.5-0.7,1-0.7c0.4,0,0.6,0.2,0.7,0.5L98.2,33.8z"/>
				<path class="st11" d="M101,35.8l0.3-1.3h-1.5l-0.3,1.3h-0.4l0.7-2.7h0.4l-0.3,1.1h1.5l0.3-1.1h0.4l-0.7,2.7H101z"/>
				<path class="st11" d="M104.5,35.8l0-0.7h-1.2l-0.5,0.7h-0.4l1.8-2.7h0.4l0.3,2.7H104.5z M104.3,33.5l-0.8,1.3h0.9L104.3,33.5z"
					/>
			</g>
		</g>
	</g>
</g>
</svg>
