<?xml version="1.0" encoding="utf-8"?>
<!-- Generator: Adobe Illustrator 23.0.3, SVG Export Plug-In . SVG Version: 6.00 Build 0)  -->
<svg version="1.1" id="レイヤー_1" xmlns="http://www.w3.org/2000/svg" xmlns:xlink="http://www.w3.org/1999/xlink" x="0px"
	 y="0px" viewBox="0 0 85 85" style="enable-background:new 0 0 85 85;" xml:space="preserve">
<style type="text/css">
	.st0{fill:#FFFFFF;}
</style>
<path class="st0" d="M82.7,76L61.2,54.5c4.3-5.7,6.6-12.7,6.6-19.9c0-18.3-14.9-33.2-33.2-33.2S1.4,16.3,1.4,34.6
	c0,18.3,14.9,33.2,33.2,33.2c7.2,0,14.2-2.3,19.9-6.6L76,82.7c0.6,0.6,1.4,0.9,2.2,0.9c0.8,0,1.6-0.3,2.2-0.9l2.2-2.2
	C83.9,79.2,83.9,77.2,82.7,76z M34.6,10.9c13.1,0,23.7,10.6,23.7,23.7S47.7,58.3,34.6,58.3S10.9,47.7,10.9,34.6S21.5,10.9,34.6,10.9
	z"/>
</svg>
